HIERARCHY
ROOT pelvis
{
  OFFSET 0 100 0
  CHANNELS 6 Xposition Yposition Zposition Zrotation Xrotation Yrotation
  JOINT pelvis_right_femur
  {
    OFFSET -10.78128 -3.44521 -0.5502486
    CHANNELS 3 Zrotation Xrotation Yrotation
    JOINT right_femur_tibia
    {
      OFFSET -0.8047443 -44.0398 -0.1307829
      CHANNELS 3 Zrotation Xrotation Yrotation
      JOINT right_tibia_foot
      {
        OFFSET 3.006224 -47.83518 -5
        CHANNELS 3 Zrotation Xrotation Yrotation
        End Site
        {
          OFFSET 0 -5 15
        }
      }
    }
  }
  JOINT pelvis_left_femur
  {
    OFFSET 10.78128 -3.44521 -0.5502486
    CHANNELS 3 Zrotation Xrotation Yrotation
    JOINT left_femur_tibia
    {
      OFFSET 0.8047443 -44.0398 -0.1307829
      CHANNELS 3 Zrotation Xrotation Yrotation
      JOINT left_tibia_foot
      {
        OFFSET -4.370144 -48.10324 -4.275266
        CHANNELS 3 Zrotation Xrotation Yrotation
        End Site
        {
          OFFSET 0 -5 15
        }
      }
    }
  }
  JOINT pelvis_spine1
  {
    OFFSET 0 6.468898 -3.129235
    CHANNELS 3 Zrotation Xrotation Yrotation
    JOINT spine1
    {
      OFFSET 0 23.15396 4.99043
      CHANNELS 3 Zrotation Xrotation Yrotation
      JOINT spine2
      {
        OFFSET 0 20.79997 -5.064912
        CHANNELS 3 Zrotation Xrotation Yrotation
        JOINT neck
        {
          OFFSET 0 14.38658 9.616178
          CHANNELS 3 Zrotation Xrotation Yrotation
          End Site
          {
            OFFSET 0 20 0
          }
        }
      }
      JOINT right_manubrium
      {
        OFFSET -5.722621 16.35077 3.967754
        CHANNELS 3 Zrotation Xrotation Yrotation
        JOINT right_clavicle
        {
          OFFSET -13.16364 1.694482 -4.693211
          CHANNELS 3 Zrotation Xrotation Yrotation
          JOINT right_humerus
          {
            OFFSET -28.5034 -0.3100689 -2.792744
            CHANNELS 3 Zrotation Xrotation Yrotation
            JOINT right_radius
            {
              OFFSET -25.15693 0.02248979 -1.271978
              CHANNELS 3 Zrotation Xrotation Yrotation
              End Site
              {
                OFFSET -15 0 0
              }
            }
          }
        }
      }
      JOINT left_manubrium
      {
        OFFSET 5.722621 16.35077 3.967754
        CHANNELS 3 Zrotation Xrotation Yrotation
        JOINT left_clavicle
        {
          OFFSET 13.16364 1.694482 -4.693211
          CHANNELS 3 Zrotation Xrotation Yrotation
          JOINT left_humerus
          {
            OFFSET 29.39168 -1.063119 -2.237045
            CHANNELS 3 Zrotation Xrotation Yrotation
            JOINT left_radius
            {
              OFFSET 24.59957 -0.9528479 0.9047498
              CHANNELS 3 Zrotation Xrotation Yrotation
              End Site
              {
                OFFSET 15 -0 -0
              }
            }
          }
        }
      }
    }
  }
}
MOTION
Frames: 17
Frame Time: 0.0416666666667
0 103.5113 0 2.181211 -1.221045 0.2957771 1.250987 -10.03103 8.772903 -0 34.9273 -0 -5.274595 -18.01893 -2.454016 -8.034484 10.09545 -23.52008 -0 5.124772 -0 7.70089 -16.12648 26.59484 -4.326248 -5.063725 4.932596 1.998898 9.220904 -7.752144 0.8322566 22.84061 7.170579 3.236967 -23.09843 8.816255 6.378244 -19.76851 11.57275 86.30871 35.9454 -19.77635 -0 0 16.27409 -7.576599 8.239897 4.618642 5.475288 -19.48065 -1.687298 -94.80802 29.74246 22.9888 0 0 -15.91021 3.485023 17.91362 9.57434
0.3209692 103.5547 1.333493 2.01542 -1.131294 0.5031052 1.5473 -10.97925 8.715575 -0 35.08151 -0 -5.332765 -17.71688 -2.555359 -7.868317 10.2244 -23.41097 -0 5.150868 -0 7.592554 -16.35641 26.45141 -4.244706 -4.87838 4.841998 2.072644 9.193924 -7.791602 0.8485063 22.77381 7.182305 3.239306 -23.23328 8.856115 6.377913 -19.73994 11.57308 86.27114 35.92119 -19.78851 -0 0 16.20844 -7.619193 8.266599 4.641708 5.527607 -19.52678 -1.672894 -94.74662 29.68798 22.92019 0 0 -16.08512 3.525105 17.84266 9.558698
0.6526576 103.5356 2.774728 1.769767 -0.917285 0.5909964 1.944274 -12.46502 8.489699 -0 33.87228 -0 -5.385263 -17.10265 -2.342052 -7.622537 10.35509 -23.17121 -0 5.226611 -0 7.395133 -16.73506 26.20471 -4.168772 -4.592358 4.777554 2.248056 9.123475 -7.818536 0.8981614 22.60986 7.191045 3.271049 -23.45422 8.905173 6.357687 -19.66892 11.58331 86.19933 35.88133 -19.83388 -0 0 16.07127 -7.690276 8.309724 4.667508 5.693785 -19.60621 -1.637629 -94.62953 29.59543 22.68679 0 0 -16.53189 3.625449 17.73916 9.47133
1.012227 103.3848 4.399432 1.491396 -0.5281448 0.5169014 2.333134 -14.39374 8.038073 -0 30.58104 -0 -5.400821 -16.0153 -1.681446 -7.376244 10.46724 -22.75672 -0 5.406468 -0 7.103168 -17.29216 25.82668 -4.127334 -4.240461 4.807126 2.521969 9.00395 -7.77669 1.015034 22.33032 7.176317 3.350682 -23.7459 8.960939 6.282689 -19.49776 11.61204 86.1225 35.82173 -19.95137 -0 0 15.83717 -7.791128 8.372102 4.692128 6.00603 -19.74526 -1.566232 -94.43417 29.47264 22.21568 0 0 -17.32444 3.787614 17.60662 9.280409
1.41333 103.0384 6.248307 1.262361 0.02204281 0.3317207 2.565983 -16.51047 7.404709 -0 25.27155 -0 -5.375242 -14.38723 -0.6353593 -7.22418 10.58427 -22.17243 -0 5.749534 -0 6.725155 -18.02362 25.27189 -4.128968 -3.903353 4.946354 2.823198 8.861225 -7.638495 1.19109 21.99422 7.130865 3.468706 -24.03573 9.010607 6.138501 -19.214 11.64769 86.08947 35.74453 -20.14671 -0 0 15.50446 -7.915017 8.456645 4.717034 6.430756 -19.96509 -1.445456 -94.14143 29.33475 21.52293 0 0 -18.37259 3.976533 17.44554 9.010855
1.861017 102.4673 8.343596 1.151615 0.6926255 0.1168472 2.566951 -18.53267 6.628569 -0 18.40945 -0 -5.331005 -12.34322 0.6604964 -7.199676 10.74869 -21.43727 -0 6.301545 -0 6.240747 -18.87556 24.47378 -4.172275 -3.667718 5.122292 3.060894 8.723482 -7.464512 1.355012 21.70466 7.087172 3.592119 -24.23072 9.032685 5.939787 -18.88405 11.63916 86.14701 35.66011 -20.38681 -0 0 15.08679 -8.049746 8.5692 4.748448 6.900237 -20.24569 -1.28137 -93.74484 29.18459 20.69866 0 0 -19.47533 4.1543 17.25491 8.735843
2.343883 101.689 10.77567 1.16103 1.468521 -0.06240866 2.445012 -20.22476 5.663909 -0 10.77422 -0 -5.286236 -10.24787 1.975177 -7.303745 11.00132 -20.53435 -0 7.130111 -0 5.590758 -19.74454 23.40953 -4.236573 -3.575496 5.22542 3.189853 8.587412 -7.361881 1.444151 21.51143 7.088422 3.694482 -24.29065 9.02603 5.69614 -18.54548 11.55062 86.34885 35.57722 -20.66796 -0 0 14.60019 -8.184716 8.719653 4.797467 7.342506 -20.54021 -1.140653 -93.25943 29.02712 19.84548 0 0 -20.43404 4.292805 17.04119 8.528835
2.844063 100.7621 13.64758 1.184637 2.255406 -0.08276482 2.348538 -21.32603 4.649868 -0 3.638561 -0 -5.320979 -8.507009 3.140316 -7.404134 11.34245 -19.50774 -0 8.422317 -0 4.682383 -20.46085 22.04861 -4.210542 -3.600063 5.211626 3.229484 8.464674 -7.367796 1.447527 21.40171 7.13924 3.764782 -24.2379 8.991595 5.468717 -18.15696 11.40395 86.7185 35.49568 -21.04392 -0 0 14.03028 -8.313914 8.91926 4.865537 7.620814 -20.81615 -1.06812 -92.75305 28.86479 19.08655 0 0 -21.04312 4.355452 16.79351 8.439709
3.333548 99.81285 17.04122 1.118016 2.997001 0.1998612 2.391269 -21.587 3.746107 0 -1.758965 0 -5.524458 -7.352537 3.991418 -7.332903 11.72618 -18.36842 -0 10.42259 -0 3.405728 -20.73596 20.34846 -3.996118 -3.721211 5.04145 3.224049 8.323423 -7.527529 1.376157 21.32 7.21963 3.802168 -24.14271 8.91766 5.313126 -17.72471 11.2379 87.205 35.42141 -21.50807 -0 0 13.37716 -8.454325 9.172199 4.958022 7.623516 -20.99933 -1.097729 -92.29318 28.67744 18.54704 0 0 -21.15563 4.333295 16.50011 8.487149
3.7897 99.0329 21.00645 0.8794793 3.705215 0.8221447 2.553456 -20.72388 3.058752 0 -4.645106 0 -5.965185 -6.721459 4.431324 -6.955173 11.97143 -17.13723 -0 13.43468 -0 1.696293 -20.15979 18.31209 -3.50752 -3.950687 4.708818 3.199276 8.148658 -7.841404 1.231581 21.22324 7.311454 3.795713 -24.04665 8.790317 5.238364 -17.25393 11.08883 87.76616 35.35982 -22.03339 -0 0 12.65 -8.627391 9.478114 5.080227 7.313838 -21.02821 -1.24481 -91.9512 28.44891 18.31336 0 0 -20.71919 4.227688 16.15502 8.676575
4.214886 98.59791 25.55517 0.4626691 4.278472 1.629223 2.833418 -18.6571 2.671324 0 -5.225077 0 -6.612842 -6.509995 4.531828 -6.323402 11.8082 -15.92257 -0 17.88758 -0 -0.36631 -18.2826 16.04119 -2.723688 -4.270115 4.330998 3.151218 7.992084 -8.192416 1.019928 21.12118 7.392778 3.735154 -23.91429 8.593571 5.201596 -16.75077 11.01026 88.3491 35.31504 -22.54755 -0 0 11.89713 -8.8588 9.831565 5.245382 6.747479 -20.86055 -1.484822 -91.80302 28.16759 18.41683 0 0 -19.81894 4.04667 15.7601 8.983651
4.630059 98.60159 30.63373 -0.01125289 4.467215 2.281881 3.240552 -15.55083 2.592952 0 -4.576449 0 -7.324285 -6.803365 4.488441 -5.705743 10.93406 -14.82177 -0 24.26184 -0 -2.519058 -14.85297 13.75913 -1.744841 -4.573854 4.141681 3.058333 7.952395 -8.363448 0.7529247 21.07375 7.43745 3.620291 -23.67442 8.30552 5.176615 -16.24657 11.08297 88.87296 35.29629 -22.91911 -0 0 11.19755 -9.17436 10.22489 5.47074 6.045637 -20.52396 -1.751471 -91.85632 27.82674 18.7915 0 0 -18.67549 3.812577 15.33032 9.346304
5.049461 99.04886 36.08725 -0.3144276 4.0519 2.405986 3.619669 -11.49057 2.671989 0 -3.863141 0 -7.93407 -7.800298 4.46998 -5.346871 8.968483 -13.80364 -0 32.71185 -0 -4.36984 -10.20458 11.78903 -0.8080364 -4.69742 4.372759 2.898332 8.116502 -8.15942 0.4511028 21.15738 7.421305 3.468121 -23.29296 7.91012 5.214438 -15.80005 11.37193 89.24174 35.31848 -23.0017 -0 0 10.62099 -9.600677 10.65052 5.770753 5.324329 -20.15041 -1.968442 -92.00298 27.43184 19.28176 0 0 -17.55196 3.561894 14.89224 9.68927
5.482519 99.82728 41.68246 -0.235658 3.005808 1.930522 3.691275 -6.309238 2.685815 0 -3.685329 0 -8.340405 -9.473708 4.562098 -5.155901 5.451078 -12.82701 -0 42.45842 -0 -5.548887 -5.475468 10.48523 -0.2348054 -4.552667 5.117923 2.662023 8.498381 -7.5738 0.1946965 21.42878 7.307421 3.334527 -22.76053 7.423025 5.351874 -15.51251 11.83495 89.29955 35.39289 -22.65745 -0 0 10.25664 -10.20324 11.08925 6.179122 4.644873 -19.83946 -2.095627 -92.13601 26.98593 19.78662 0 0 -16.62204 3.337045 14.4635 9.952335
5.902839 100.7866 47.14447 0.2518477 1.571885 1.29128 3.304097 -0.2969655 2.567501 0 -4.37412 0 -8.460149 -11.46975 4.804438 -5.030424 0.4360265 -11.77336 -0 51.74962 -0 -6.063021 -1.881507 10.03833 -0.2134498 -4.198269 6.216298 2.367374 8.939433 -6.812978 0.06753607 21.88581 7.060314 3.270748 -22.05776 6.865542 5.525911 -15.56678 12.32993 88.83858 35.52385 -21.70967 -0 0 10.25797 -11.07846 11.50529 6.738377 4.102263 -19.66168 -2.126556 -92.15713 26.48755 20.19325 0 0 -16.04398 3.192545 14.05251 10.07351
6.307247 101.8481 52.32991 1.112256 0.01744193 0.7697598 2.439209 6.097221 2.397405 0 -5.885242 0 -8.244068 -13.4077 5.195996 -4.899536 -5.832152 -10.81229 -0 58.69296 -0 -5.992072 -0.1112196 10.26583 -0.7359384 -3.705071 7.475381 2.008715 9.317402 -6.009256 0.06840547 22.45492 6.705108 3.275442 -21.21815 6.272992 5.624252 -16.00295 12.73779 87.81966 35.67459 -20.12601 -0 0 10.72604 -12.28517 11.86817 7.465286 3.824043 -19.62153 -2.033526 -92.03393 25.94691 20.46338 0 0 -15.85684 3.142791 13.65766 10.0649
6.726216 102.9212 57.26423 2.23612 -1.421506 0.3857219 1.200795 12.44904 2.267227 0 -7.94014 0 -7.702522 -15.09467 5.702668 -4.690072 -12.82186 -10.00448 -0 62.26818 -0 -5.464135 0.1339193 10.95831 -1.643832 -3.193836 8.687655 1.560745 9.602368 -5.246671 0.1347802 23.0243 6.317021 3.311521 -20.32622 5.69954 5.55337 -16.742 12.98418 86.34622 35.77283 -18.01235 -0 0 11.69667 -13.8216 12.15733 8.35891 3.828989 -19.60952 -1.82929 -91.84704 25.38706 20.70875 0 0 -15.91138 3.132957 13.26545 9.990856
